<svg width="48" height="48" viewBox="0 0 48 48" fill="none" xmlns="http://www.w3.org/2000/svg">
<rect opacity="0.1" width="48" height="48" rx="14" fill="#1D60E5"/>
<path d="M26.2955 25.25C25.2348 25.25 24.3333 24.8854 23.5909 24.1562C22.8485 23.4271 22.4773 22.5417 22.4773 21.5C22.4773 20.4583 22.8485 19.5729 23.5909 18.8438C24.3333 18.1146 25.2348 17.75 26.2955 17.75C27.3561 17.75 28.2576 18.1146 29 18.8438C29.7424 19.5729 30.1136 20.4583 30.1136 21.5C30.1136 22.5417 29.7424 23.4271 29 24.1562C28.2576 24.8854 27.3561 25.25 26.2955 25.25ZM17.3864 29C16.6864 29 16.0871 28.7552 15.5886 28.2656C15.0902 27.776 14.8409 27.1875 14.8409 26.5V16.5C14.8409 15.8125 15.0902 15.224 15.5886 14.7344C16.0871 14.2448 16.6864 14 17.3864 14H35.2045C35.9045 14 36.5038 14.2448 37.0023 14.7344C37.5008 15.224 37.75 15.8125 37.75 16.5V26.5C37.75 27.1875 37.5008 27.776 37.0023 28.2656C36.5038 28.7552 35.9045 29 35.2045 29H17.3864ZM19.9318 26.5H32.6591C32.6591 25.8125 32.9083 25.224 33.4068 24.7344C33.9053 24.2448 34.5045 24 35.2045 24V19C34.5045 19 33.9053 18.7552 33.4068 18.2656C32.9083 17.776 32.6591 17.1875 32.6591 16.5H19.9318C19.9318 17.1875 19.6826 17.776 19.1841 18.2656C18.6856 18.7552 18.0864 19 17.3864 19V24C18.0864 24 18.6856 24.2448 19.1841 24.7344C19.6826 25.224 19.9318 25.8125 19.9318 26.5ZM33.9318 34H12.2955C11.5955 34 10.9962 33.7552 10.4977 33.2656C9.99924 32.776 9.75 32.1875 9.75 31.5V17.75H12.2955V31.5H33.9318V34Z" fill="url(#paint0_linear_1_873)"/>
<defs>
<linearGradient id="paint0_linear_1_873" x1="23.75" y1="14" x2="23.75" y2="34" gradientUnits="userSpaceOnUse">
<stop stop-color="#8FB5FF"/>
<stop offset="1" stop-color="#1D60E5"/>
</linearGradient>
</defs>
</svg>
