<svg width="48" height="48" viewBox="0 0 48 48" fill="none" xmlns="http://www.w3.org/2000/svg">
<rect opacity="0.1" width="48" height="48" rx="14" fill="#65A3FF"/>
<path d="M17.925 39.6219C15.7958 38.7031 13.9437 37.4562 12.3688 35.8813C10.7938 34.3062 9.54688 32.4542 8.62812 30.325C7.70937 28.1958 7.25 25.9208 7.25 23.5C7.25 21.0792 7.70937 18.8042 8.62812 16.675C9.54688 14.5458 10.7938 12.6937 12.3688 11.1188C13.9437 9.54375 15.7958 8.29688 17.925 7.37812C20.0542 6.45937 22.3292 6 24.75 6C27.1708 6 29.4458 6.45937 31.575 7.37812C33.7042 8.29688 35.5562 9.54375 37.1313 11.1188C38.7062 12.6937 39.9531 14.5458 40.8719 16.675C41.7906 18.8042 42.25 21.0792 42.25 23.5C42.25 25.9208 41.7906 28.1958 40.8719 30.325C39.9531 32.4542 38.7062 34.3062 37.1313 35.8813C35.5562 37.4562 33.7042 38.7031 31.575 39.6219C29.4458 40.5406 27.1708 41 24.75 41C22.3292 41 20.0542 40.5406 17.925 39.6219ZM34.6812 33.4312C37.3937 30.7188 38.75 27.4083 38.75 23.5C38.75 19.5917 37.3937 16.2812 34.6812 13.5687C31.9688 10.8562 28.6583 9.5 24.75 9.5C20.8417 9.5 17.5312 10.8562 14.8187 13.5687C12.1062 16.2812 10.75 19.5917 10.75 23.5C10.75 27.4083 12.1062 30.7188 14.8187 33.4312C17.5312 36.1437 20.8417 37.5 24.75 37.5C28.6583 37.5 31.9688 36.1437 34.6812 33.4312ZM17.3125 30.9375C15.2708 28.8958 14.25 26.4167 14.25 23.5C14.25 20.5833 15.2708 18.1042 17.3125 16.0625C19.3542 14.0208 21.8333 13 24.75 13C27.6667 13 30.1458 14.0208 32.1875 16.0625C34.2292 18.1042 35.25 20.5833 35.25 23.5C35.25 26.4167 34.2292 28.8958 32.1875 30.9375C30.1458 32.9792 27.6667 34 24.75 34C21.8333 34 19.3542 32.9792 17.3125 30.9375ZM29.6938 28.4438C31.0646 27.0729 31.75 25.425 31.75 23.5C31.75 21.575 31.0646 19.9271 29.6938 18.5562C28.3229 17.1854 26.675 16.5 24.75 16.5C22.825 16.5 21.1771 17.1854 19.8062 18.5562C18.4354 19.9271 17.75 21.575 17.75 23.5C17.75 25.425 18.4354 27.0729 19.8062 28.4438C21.1771 29.8146 22.825 30.5 24.75 30.5C26.675 30.5 28.3229 29.8146 29.6938 28.4438ZM22.2781 25.9719C21.5927 25.2865 21.25 24.4625 21.25 23.5C21.25 22.5375 21.5927 21.7135 22.2781 21.0281C22.9635 20.3427 23.7875 20 24.75 20C25.7125 20 26.5365 20.3427 27.2219 21.0281C27.9073 21.7135 28.25 22.5375 28.25 23.5C28.25 24.4625 27.9073 25.2865 27.2219 25.9719C26.5365 26.6573 25.7125 27 24.75 27C23.7875 27 22.9635 26.6573 22.2781 25.9719Z" fill="url(#paint0_linear_1_859)"/>
<defs>
<linearGradient id="paint0_linear_1_859" x1="24.75" y1="6" x2="24.75" y2="41" gradientUnits="userSpaceOnUse">
<stop stop-color="#8FB5FF"/>
<stop offset="1" stop-color="#1D60E5"/>
</linearGradient>
</defs>
</svg>
