<svg width="32" height="32" viewBox="0 0 32 32" fill="none" xmlns="http://www.w3.org/2000/svg">
<g clip-path="url(#clip0_1_728)">
<path d="M32 16C32 7.16344 24.8366 0 16 0C7.16344 0 0 7.16344 0 16C0 24.8366 7.16344 32 16 32C24.8366 32 32 24.8366 32 16Z" fill="#1A69FF"/>
<path d="M10.375 7C9.13398 7 8.125 8.00898 8.125 9.25V22.75C8.125 23.991 9.13398 25 10.375 25H20.5C21.741 25 22.75 23.991 22.75 22.75V9.25C22.75 8.00898 21.741 7 20.5 7H10.375ZM14.3125 17.125H16.5625C18.1164 17.125 19.375 18.3836 19.375 19.9375C19.375 20.2469 19.1219 20.5 18.8125 20.5H12.0625C11.7531 20.5 11.5 20.2469 11.5 19.9375C11.5 18.3836 12.7586 17.125 14.3125 17.125ZM13.1875 13.75C13.1875 13.1533 13.4246 12.581 13.8465 12.159C14.2685 11.7371 14.8408 11.5 15.4375 11.5C16.0342 11.5 16.6065 11.7371 17.0285 12.159C17.4504 12.581 17.6875 13.1533 17.6875 13.75C17.6875 14.3467 17.4504 14.919 17.0285 15.341C16.6065 15.7629 16.0342 16 15.4375 16C14.8408 16 14.2685 15.7629 13.8465 15.341C13.4246 14.919 13.1875 14.3467 13.1875 13.75ZM25 9.8125C25 9.50312 24.7469 9.25 24.4375 9.25C24.1281 9.25 23.875 9.50312 23.875 9.8125V12.0625C23.875 12.3719 24.1281 12.625 24.4375 12.625C24.7469 12.625 25 12.3719 25 12.0625V9.8125ZM24.4375 13.75C24.1281 13.75 23.875 14.0031 23.875 14.3125V16.5625C23.875 16.8719 24.1281 17.125 24.4375 17.125C24.7469 17.125 25 16.8719 25 16.5625V14.3125C25 14.0031 24.7469 13.75 24.4375 13.75ZM25 18.8125C25 18.5031 24.7469 18.25 24.4375 18.25C24.1281 18.25 23.875 18.5031 23.875 18.8125V21.0625C23.875 21.3719 24.1281 21.625 24.4375 21.625C24.7469 21.625 25 21.3719 25 21.0625V18.8125Z" fill="#FCFBFA"/>
</g>
<defs>
<clipPath id="clip0_1_728">
<rect width="32" height="32" fill="white"/>
</clipPath>
</defs>
</svg>
