<svg width="48" height="48" viewBox="0 0 48 48" fill="none" xmlns="http://www.w3.org/2000/svg">
<rect opacity="0.1" width="48" height="48" rx="14" fill="#1D60E5"/>
<path d="M18.0227 14.7614L16.6591 10.6705L18.5682 10.0568L19.9318 14.1136L18.0227 14.7614ZM22.7273 13.0909V9H24.7727V13.0909H22.7273ZM29.4773 14.7614L27.5682 14.1136L28.9318 10.0568L30.8409 10.7045L29.4773 14.7614ZM10.3182 39L9.90909 36.3068L17.1023 35.2159C17.3523 35.1705 17.5739 35.0625 17.767 34.892C17.9602 34.7216 18.1023 34.5114 18.1932 34.2614L19.3523 30.6477C19.4659 30.3295 19.4659 30.0227 19.3523 29.7273C19.2386 29.4318 19.0341 29.2045 18.7386 29.0455L17.6136 32.5909L15.0227 31.7727L18.0227 22.2955C18.0682 22.1591 18.0909 22.0114 18.0909 21.8523C18.0909 21.6932 18.0682 21.5455 18.0227 21.4091L13.4545 30C13.0909 30.6591 12.5852 31.1875 11.9375 31.5852C11.2898 31.983 10.5909 32.1818 9.84091 32.1818H8.75V29.4545H9.84091C10.0909 29.4545 10.3239 29.392 10.5398 29.267C10.7557 29.142 10.9205 28.9659 11.0341 28.7386L17.0682 17.3523L18.7727 18.3068C19.6136 18.7841 20.2102 19.4716 20.5625 20.3693C20.9148 21.267 20.9432 22.1818 20.6477 23.1136L19.5909 26.4545C20.5909 26.8409 21.3125 27.5227 21.7557 28.5C22.1989 29.4773 22.2614 30.4773 21.9432 31.5L20.7841 35.1136C20.5341 35.8409 20.1193 36.4602 19.5398 36.9716C18.9602 37.483 18.2841 37.7955 17.5114 37.9091L10.3182 39ZM37.1818 39L29.9886 37.9091C29.2159 37.7955 28.5398 37.483 27.9602 36.9716C27.3807 36.4602 26.9659 35.8409 26.7159 35.1136L25.5568 31.5C25.2386 30.4773 25.3011 29.4773 25.7443 28.5C26.1875 27.5227 26.9091 26.8409 27.9091 26.4545L26.8523 23.1136C26.5568 22.1818 26.5852 21.267 26.9375 20.3693C27.2898 19.4716 27.8864 18.7841 28.7273 18.3068L30.4318 17.3523L36.4659 28.7386C36.5795 28.9659 36.7443 29.142 36.9602 29.267C37.1761 29.392 37.4091 29.4545 37.6591 29.4545H38.75V32.1818H37.6591C36.9091 32.1818 36.2102 31.983 35.5625 31.5852C34.9148 31.1875 34.4091 30.6591 34.0455 30L29.4773 21.4091C29.4318 21.5455 29.4091 21.6932 29.4091 21.8523C29.4091 22.0114 29.4318 22.1591 29.4773 22.2955L32.4773 31.7727L29.8864 32.5909L28.7614 29.0455C28.4659 29.2045 28.2614 29.4318 28.1477 29.7273C28.0341 30.0227 28.0341 30.3295 28.1477 30.6477L29.3068 34.2614C29.3977 34.5114 29.5398 34.7216 29.733 34.892C29.9261 35.0625 30.1477 35.1705 30.3977 35.2159L37.5909 36.3068L37.1818 39Z" fill="url(#paint0_linear_1_866)"/>
<defs>
<linearGradient id="paint0_linear_1_866" x1="23.75" y1="9" x2="23.75" y2="39" gradientUnits="userSpaceOnUse">
<stop stop-color="#8FB5FF"/>
<stop offset="1" stop-color="#1D60E5"/>
</linearGradient>
</defs>
</svg>
