<svg width="32" height="32" viewBox="0 0 32 32" fill="none" xmlns="http://www.w3.org/2000/svg">
<g clip-path="url(#clip0_1_766)">
<path d="M32 16C32 7.16344 24.8366 0 16 0C7.16344 0 0 7.16344 0 16C0 24.8366 7.16344 32 16 32C24.8366 32 32 24.8366 32 16Z" fill="#1A69FF"/>
<mask id="mask0_1_766" style="mask-type:luminance" maskUnits="userSpaceOnUse" x="6" y="6" width="20" height="20">
<path d="M25.1431 6.85718H6.85742V25.1429H25.1431V6.85718Z" fill="white"/>
</mask>
<g mask="url(#mask0_1_766)">
<path fill-rule="evenodd" clip-rule="evenodd" d="M17.1886 7.81343C17.3742 7.8718 17.5363 7.98786 17.6514 8.14473C17.7665 8.3016 17.8286 8.49109 17.8286 8.68566V13.2571H21.4857C21.653 13.257 21.817 13.3028 21.96 13.3895C22.1031 13.4762 22.2196 13.6004 22.2969 13.7487C22.3742 13.897 22.4093 14.0637 22.3985 14.2306C22.3877 14.3975 22.3313 14.5582 22.2354 14.6953L15.8354 23.8381C15.7241 23.9977 15.5647 24.1176 15.3804 24.1803C15.1962 24.243 14.9968 24.2453 14.8112 24.1869C14.6255 24.1285 14.4634 24.0123 14.3484 23.8554C14.2333 23.6984 14.1713 23.5088 14.1714 23.3142V18.7428H10.5143C10.3471 18.7429 10.183 18.6971 10.04 18.6104C9.89697 18.5237 9.78046 18.3994 9.70316 18.2512C9.62585 18.1029 9.5907 17.9362 9.60153 17.7693C9.61236 17.6024 9.66876 17.4417 9.76459 17.3046L16.1646 8.16177C16.2761 8.00249 16.4356 7.88293 16.6197 7.82045C16.8039 7.75797 17.0031 7.75491 17.1886 7.81343Z" fill="white"/>
</g>
</g>
<defs>
<clipPath id="clip0_1_766">
<rect width="32" height="32" fill="white"/>
</clipPath>
</defs>
</svg>
