<svg width="32" height="32" viewBox="0 0 32 32" fill="none" xmlns="http://www.w3.org/2000/svg">
<g clip-path="url(#clip0_1_744)">
<path d="M32 16C32 7.16344 24.8366 0 16 0C7.16344 0 0 7.16344 0 16C0 24.8366 7.16344 32 16 32C24.8366 32 32 24.8366 32 16Z" fill="#1A69FF"/>
<path d="M15.0858 12.3428C15.0858 13.0703 14.7968 13.7679 14.2824 14.2823C13.768 14.7967 13.0704 15.0857 12.3429 15.0857C11.6155 15.0857 10.9178 14.7967 10.4034 14.2823C9.88903 13.7679 9.60006 13.0703 9.60006 12.3428C9.60006 11.6154 9.88903 10.9177 10.4034 10.4033C10.9178 9.88895 11.6155 9.59998 12.3429 9.59998C13.0704 9.59998 13.768 9.88895 14.2824 10.4033C14.7968 10.9177 15.0858 11.6154 15.0858 12.3428ZM22.4001 12.3428C22.4001 12.703 22.3291 13.0597 22.1913 13.3925C22.0534 13.7253 21.8514 14.0276 21.5967 14.2823C21.342 14.537 21.0396 14.7391 20.7068 14.8769C20.3741 15.0147 20.0174 15.0857 19.6572 15.0857C19.297 15.0857 18.9403 15.0147 18.6076 14.8769C18.2748 14.7391 17.9724 14.537 17.7177 14.2823C17.463 14.0276 17.261 13.7253 17.1231 13.3925C16.9853 13.0597 16.9143 12.703 16.9143 12.3428C16.9143 11.6154 17.2033 10.9177 17.7177 10.4033C18.2321 9.88895 18.9297 9.59998 19.6572 9.59998C20.3846 9.59998 21.0823 9.88895 21.5967 10.4033C22.1111 10.9177 22.4001 11.6154 22.4001 12.3428ZM18.6789 22.4C18.721 22.101 18.7429 21.7965 18.7429 21.4857C18.745 20.0492 18.2618 18.6542 17.3715 17.5268C18.0664 17.1256 18.8547 16.9144 19.6572 16.9144C20.4596 16.9144 21.2479 17.1256 21.9429 17.5268C22.6378 17.928 23.2149 18.5051 23.6161 19.2C24.0174 19.8949 24.2286 20.6832 24.2286 21.4857V22.4H18.6789ZM12.3429 16.9143C13.5553 16.9143 14.7181 17.3959 15.5754 18.2532C16.4327 19.1105 16.9143 20.2733 16.9143 21.4857V22.4H7.77148V21.4857C7.77148 20.2733 8.25312 19.1105 9.11042 18.2532C9.96773 17.3959 11.1305 16.9143 12.3429 16.9143Z" fill="#FCFBFA"/>
</g>
<defs>
<clipPath id="clip0_1_744">
<rect width="32" height="32" fill="white"/>
</clipPath>
</defs>
</svg>
